<?xml version="1.0" encoding="UTF-8"?>
<svg version="1.1" xmlns="http://www.w3.org/2000/svg" width="188" height="132">
<path d="M0 0 C62.04 0 124.08 0 188 0 C188 43.56 188 87.12 188 132 C125.96 132 63.92 132 0 132 C0 88.44 0 44.88 0 0 Z " fill="#FCFCFB" transform="translate(0,0)"/>
<path d="M0 0 C2.3125 0 2.3125 0 5 1 C7.55694299 6.8616082 9.16681391 12.94064524 10.75 19.125 C11.00313965 20.10275391 11.2562793 21.08050781 11.51708984 22.08789062 C14.00715576 31.81806916 16.26922334 41.60101983 18.51879883 51.38891602 C20.29208514 59.07814487 22.17539438 66.70585926 24.37109375 74.28515625 C24.99052219 76.95908648 25.12538455 79.26661681 25 82 C25.66 82 26.32 82 27 82 C27.0825 81.36578125 27.165 80.7315625 27.25 80.078125 C28.31024506 75.72670257 30.15282508 71.81895174 32 67.75 C32.36867187 66.92242187 32.73734375 66.09484375 33.1171875 65.2421875 C35.85667783 59.14332217 35.85667783 59.14332217 37 58 C39.76362609 57.84580627 42.48502556 57.76828082 45.25 57.75 C46.01441406 57.729375 46.77882813 57.70875 47.56640625 57.6875 C52.24126301 57.65520393 55.14060575 58.06686037 59 61 C58.67 62.65 58.34 64.3 58 66 C52.72 66 47.44 66 42 66 C41.443125 67.7325 41.443125 67.7325 40.875 69.5 C38.44928665 76.74281393 35.80015454 83.89431027 33 91 C32.58621094 92.0621875 32.17242187 93.124375 31.74609375 94.21875 C31.35550781 95.1159375 30.96492188 96.013125 30.5625 96.9375 C30.23378906 97.70964844 29.90507813 98.48179688 29.56640625 99.27734375 C27.16659583 101.91653676 24.43032445 101.60441109 21 102 C16.82076349 86.09080557 12.72982331 70.18118124 9.09277344 54.13769531 C6.87917853 44.38624332 4.47144164 34.68892609 2 25 C-1.0696366 32.63121949 -3.25017872 40.3967004 -5.2487793 48.3605957 C-6.26850271 52.38951506 -7.44885967 56.14076287 -9 60 C-9.50070567 61.94427242 -9.9994073 63.88922795 -10.46875 65.84130859 C-11.3760036 69.52786021 -12.43847781 73.16794047 -13.5 76.8125 C-13.71269531 77.56208984 -13.92539063 78.31167969 -14.14453125 79.08398438 C-15.12382683 82.44543146 -16.04376366 85.06564549 -18 88 C-21.375 88.5625 -21.375 88.5625 -25 88 C-27.70448323 84.87944243 -29 83.16725696 -29 79 C-27.02 79 -25.04 79 -23 79 C-22.773125 77.72125 -22.54625 76.4425 -22.3125 75.125 C-19.4681582 60.98230049 -14.90077324 47.12240787 -10.83984375 33.29296875 C-9.56461542 28.94625213 -8.30929837 24.59435202 -7.06640625 20.23828125 C-6.75171387 19.1414502 -6.43702148 18.04461914 -6.11279297 16.91455078 C-5.50746638 14.80341442 -4.90606814 12.69114673 -4.30908203 10.57763672 C-4.03563965 9.62775879 -3.76219727 8.67788086 -3.48046875 7.69921875 C-3.24223389 6.86221436 -3.00399902 6.02520996 -2.75854492 5.1628418 C-2 3 -2 3 0 0 Z " fill="#EA5E2A" transform="translate(92,13)"/>
<path d="M0 0 C-0.33 2.64 -0.66 5.28 -1 8 C-1.83917969 8.22429688 -1.83917969 8.22429688 -2.6953125 8.453125 C-8.95966409 10.50767118 -13.58839549 13.72874062 -18.5625 17.9375 C-19.18205566 18.45151367 -19.80161133 18.96552734 -20.43994141 19.49511719 C-21.0179248 20.00075195 -21.5959082 20.50638672 -22.19140625 21.02734375 C-22.96786499 21.70398071 -22.96786499 21.70398071 -23.76000977 22.39428711 C-25.4531115 24.34106122 -25.4531115 24.34106122 -26 29 C-20.39 29.33 -14.78 29.66 -9 30 C-10.125 37.875 -10.125 37.875 -11.5625 41.9375 C-11.83191406 42.70964844 -12.10132813 43.48179688 -12.37890625 44.27734375 C-12.58386719 44.84582031 -12.78882813 45.41429687 -13 46 C-21.27812055 45.3146654 -21.27812055 45.3146654 -24.4375 43.9375 C-29.94110028 41.9239877 -35.90361795 42.17150765 -41.25 44.5625 C-46.59177653 47.6010409 -50.61979938 52.34702353 -53 58 C-53.44811137 60.35564596 -53.44811137 60.35564596 -53.625 62.75 C-53.69976562 63.54921875 -53.77453125 64.3484375 -53.8515625 65.171875 C-53.90054688 65.77515625 -53.94953125 66.3784375 -54 67 C-56.6875 67.3125 -56.6875 67.3125 -60 67 C-63.10164769 64.44975635 -64.72566416 62.82300753 -66 59 C-66.25288202 55.73360724 -66.23127135 52.46267233 -66.25 49.1875 C-66.270625 48.29740234 -66.29125 47.40730469 -66.3125 46.49023438 C-66.34910489 40.31773503 -65.36271343 36.38605427 -61.7734375 31.2421875 C-57.55253499 27.11560683 -53.23432231 26.18992603 -47.625 25.0625 C-40.07684537 23.51978215 -35.70395335 21.27037581 -30 16 C-27.63357735 14.0457151 -25.22352401 12.14878721 -22.8125 10.25 C-22.22960205 9.77812256 -21.6467041 9.30624512 -21.04614258 8.82006836 C-14.840791 3.87151922 -8.1078731 0 0 0 Z " fill="#1C2D47" transform="translate(77,42)"/>
<path d="M0 0 C4.70242257 2.68303546 7.48399389 6.39178427 9.625 11.3125 C10.62935271 16.90404056 10.06836168 21.33804315 7.0625 26.1875 C4.10526071 30.0641594 1.40397472 32.98354018 -3.375 34.3125 C-9.02126638 35.03443177 -13.6969836 35.12154362 -18.875 32.625 C-24.1605215 27.73589262 -27.31989487 23.32933076 -27.875 16.0625 C-27.73188642 10.34749764 -25.1274214 6.47261242 -21.375 2.3125 C-15.35856972 -3.13302814 -7.19407748 -3.28221412 0 0 Z " fill="#1D2D45" transform="translate(160.375,90.6875)"/>
<path d="M0 0 C4.14878169 2.94130045 7.54276545 6.19209661 9.65625 10.859375 C10.42122165 16.19027121 10.36004292 20.42572275 7.96875 25.296875 C3.4840196 30.26644111 -0.40630549 33.61860086 -7.15625 34.171875 C-11.9884397 34.01918499 -16.21374276 32.8710485 -19.8203125 29.46484375 C-24.33016611 24.2560947 -25.87916088 20.25834864 -25.71875 13.4609375 C-24.99213883 8.4200725 -22.54185464 4.88048939 -18.83984375 1.4765625 C-13.37766592 -2.28773355 -5.96537576 -2.90314954 0 0 Z " fill="#1E2E46" transform="translate(53.34375,91.140625)"/>
<path d="M0 0 C12.74799895 -1.01712758 21.80744106 2.584958 31.48046875 10.8046875 C32.31191406 11.52914062 33.14335937 12.25359375 34 13 C35.95256981 14.63192083 37.91093975 16.25692652 39.875 17.875 C40.75929687 18.61492188 41.64359375 19.35484375 42.5546875 20.1171875 C46.69494964 23.30505707 50.06160514 24.29463608 55.1875 25.25 C63.12364102 27.04030791 68.92994415 29.84462016 73.71484375 36.5390625 C76.67936304 41.49186793 76.7103174 46.03448305 76.5625 51.6875 C76.57345703 52.61111328 76.58441406 53.53472656 76.59570312 54.48632812 C76.54961435 58.75414907 76.37686697 61.35254091 74.19921875 65.09375 C71.25284269 67.64762481 68.82460178 67.7793499 65 68 C65 65.69 65 63.38 65 61 C65.99 61 66.98 61 68 61 C68.10861833 58.29057607 68.18758577 55.585561 68.25 52.875 C68.28351563 52.11445312 68.31703125 51.35390625 68.3515625 50.5703125 C68.44380744 45.22010575 67.59726408 42.21484747 64 38 C59.30481895 34.27731748 53.62028798 33.37834032 47.80859375 32.6875 C41.05053381 31.0332322 36.49683117 26.86825669 31.6875 22.125 C24.2204909 14.98834161 16.88210106 9.30793773 6.3125 8.4375 C5.31863281 8.35371094 4.32476562 8.26992188 3.30078125 8.18359375 C2.54152344 8.12300781 1.78226562 8.06242187 1 8 C0.67 5.36 0.34 2.72 0 0 Z " fill="#1C2B43" transform="translate(111,42)"/>
<path d="M0 0 C5.94 0 11.88 0 18 0 C18.66 2.31 19.32 4.62 20 7 C20.23589844 7.69609375 20.47179687 8.3921875 20.71484375 9.109375 C21.11728839 11.7776381 20.39993512 13.70419724 19.5625 16.25 C19.27503906 17.14203125 18.98757812 18.0340625 18.69140625 18.953125 C18.46324219 19.62859375 18.23507813 20.3040625 18 21 C16.02 21 14.04 21 12 21 C12.66 22.98 13.32 24.96 14 27 C10.125 25.25 10.125 25.25 9 23 C8.34 23.66 7.68 24.32 7 25 C6.071875 24.175 5.14375 23.35 4.1875 22.5 C-0.62023275 19.07705031 -5.3025827 19.11056519 -11 20 C-15.1610123 21.30271103 -18.02035774 23.58815421 -20.375 27.25 C-22.32304515 31.08781545 -22.70088171 34.73756441 -23 39 C-23.33 39 -23.66 39 -24 39 C-24.99 35.535 -24.99 35.535 -26 32 C-26.99 32.495 -26.99 32.495 -28 33 C-27.36045539 26.28478162 -24.4903231 22.1732312 -19.5625 17.75 C-13.67590161 13.00594814 -8.46133892 12.22538772 -1 13 C1.10277635 13.60821044 3.02719736 14.33546428 5.015625 15.24609375 C7.5987226 16.30188902 7.5987226 16.30188902 13 17 C14.32 11.72 15.64 6.44 17 1 C11.39 1 5.78 1 0 1 C0 0.67 0 0.34 0 0 Z " fill="#F0F2F5" transform="translate(51,71)"/>
<path d="M0 0 C0.76441406 -0.020625 1.52882812 -0.04125 2.31640625 -0.0625 C6.99126301 -0.09479607 9.89060575 0.31686037 13.75 3.25 C13.42 4.9 13.09 6.55 12.75 8.25 C7.47 8.25 2.19 8.25 -3.25 8.25 C-3.806875 9.9825 -3.806875 9.9825 -4.375 11.75 C-7.73607062 21.80135336 -11.19248067 31.91304124 -16.25 41.25 C-17.43414294 37.69757118 -16.94535532 36.55169438 -15.8125 33.0625 C-15.52503906 32.16144531 -15.23757812 31.26039062 -14.94140625 30.33203125 C-14.71324219 29.64496094 -14.48507813 28.95789063 -14.25 28.25 C-13.59 28.25 -12.93 28.25 -12.25 28.25 C-12.25 26.6 -12.25 24.95 -12.25 23.25 C-12.91 22.92 -13.57 22.59 -14.25 22.25 C-14.25 22.91 -14.25 23.57 -14.25 24.25 C-16.89 24.91 -19.53 25.57 -22.25 26.25 C-22.58 21.3 -22.91 16.35 -23.25 11.25 C-21.14172945 14.41240582 -20.91182535 15.75657469 -20.625 19.4375 C-20.55023438 20.33855469 -20.47546875 21.23960938 -20.3984375 22.16796875 C-20.34945312 22.85503906 -20.30046875 23.54210937 -20.25 24.25 C-19.59 24.25 -18.93 24.25 -18.25 24.25 C-18.1675 23.61578125 -18.085 22.9815625 -18 22.328125 C-16.93975494 17.97670257 -15.09717492 14.06895174 -13.25 10 C-12.88132812 9.17242187 -12.51265625 8.34484375 -12.1328125 7.4921875 C-8.94272675 0.39017177 -7.91431272 0.05232603 0 0 Z " fill="#DA663B" transform="translate(137.25,70.75)"/>
<path d="M0 0 C3.64751591 0.28057815 5.34775143 1.07331357 8.25 3.25 C10.73386059 6.97579089 10.6304212 8.83711402 10.25 13.25 C8.98001681 16.10746217 7.9661997 17.73137263 5.4375 19.5625 C2.48367076 20.49084633 0.334218 20.62765935 -2.75 20.25 C-6.08761045 18.09909549 -7.48470933 17.04587201 -8.75 13.25 C-9.125 9.875 -9.125 9.875 -8.75 6.25 C-6.3125 3.375 -6.3125 3.375 -3.75 1.25 C-2.75 0.25 -2.75 0.25 0 0 Z " fill="#F3F5F6" transform="translate(150.75,96.75)"/>
<path d="M0 0 C2.75329021 1.79562405 4.52627461 3.05254922 6 6 C6.55358359 10.05961302 6.12772011 11.77751981 4.0625 15.375 C1.70092403 17.93899677 -0.10540775 18.46526636 -3.5625 18.625 C-6.53571346 18.39743291 -7.90066688 18.05959987 -10.5 16.5 C-12.55840015 13.06933308 -13.35781859 10.00756818 -13 6 C-9.46631474 0.27299286 -6.6009622 -0.55940358 0 0 Z " fill="#F4F5F6" transform="translate(49,98)"/>
<path d="M0 0 C12.54 0 25.08 0 38 0 C38.495 3.465 38.495 3.465 39 7 C26.13 7 13.26 7 0 7 C0 4.69 0 2.38 0 0 Z " fill="#18273F" transform="translate(68,109)"/>
<path d="M0 0 C0.33 0 0.66 0 1 0 C0.67 4.62 0.34 9.24 0 14 C-0.66 14 -1.32 14 -2 14 C-2.33 16.64 -2.66 19.28 -3 22 C-1.35 22 0.3 22 2 22 C1.938125 20.96875 1.87625 19.9375 1.8125 18.875 C2.01135595 14.76531027 2.94467803 12.51117504 5 9 C6.32 9 7.64 9 9 9 C8 12 8 12 6 15 C5.34687127 16.87952767 4.75024361 18.77896103 4.1875 20.6875 C3.84589844 21.82960938 3.50429687 22.97171875 3.15234375 24.1484375 C2.96913574 24.76428711 2.78592773 25.38013672 2.59716797 26.01464844 C1.51172523 29.62332398 0.37823735 33.21702275 -0.75 36.8125 C-1.1823514 38.19399172 -1.61464816 39.57550055 -2.046875 40.95703125 C-2.36140625 41.96121094 -2.6759375 42.96539062 -3 44 C-4.30660357 39.70272603 -3.6596762 36.39784135 -3 32 C-2.34 32 -1.68 32 -1 32 C-1 30.02 -1 28.04 -1 26 C-1.99 26.33 -2.98 26.66 -4 27 C-4.66 26.67 -5.32 26.34 -6 26 C-6.71815979 30.97535929 -7.40229088 35.95414375 -8.0625 40.9375 C-8.15337891 41.62134766 -8.24425781 42.30519531 -8.33789062 43.00976562 C-8.55889797 44.67313669 -8.77949285 46.33656255 -9 48 C-10.32 48 -11.64 48 -13 48 C-11.66926167 40.59432913 -9.78351486 33.45390617 -7.625 26.25 C-7.00101769 24.14070911 -6.37731868 22.03133439 -5.75390625 19.921875 C-5.30362061 18.4049707 -5.30362061 18.4049707 -4.84423828 16.85742188 C-3.18758856 11.25029976 -1.59443453 5.62508581 0 0 Z " fill="#D56339" transform="translate(87,26)"/>
<path d="M0 0 C1.86357007 3.72714013 2.76577497 6.74541153 3.69140625 10.77734375 C3.841577 11.42570694 3.99174774 12.07407013 4.14646912 12.74208069 C4.62324336 14.80615731 5.09287715 16.87178593 5.5625 18.9375 C5.88171151 20.32236941 6.2013685 21.70713623 6.52148438 23.09179688 C8.98419044 33.78173268 8.98419044 33.78173268 10 39 C9.34 39 8.68 39 8 39 C7.80664062 38.30132812 7.61328125 37.60265625 7.4140625 36.8828125 C7.15367188 35.97273438 6.89328125 35.06265625 6.625 34.125 C6.24214844 32.76761719 6.24214844 32.76761719 5.8515625 31.3828125 C5.1395685 28.85430274 5.1395685 28.85430274 3 27 C2.8046875 24.6171875 2.8046875 24.6171875 2.875 21.875 C2.89304687 20.96492188 2.91109375 20.05484375 2.9296875 19.1171875 C2.95289062 18.41851562 2.97609375 17.71984375 3 17 C2.01 17.33 1.02 17.66 0 18 C0 12.06 0 6.12 0 0 Z M-6 9 C-4.5 10.0625 -4.5 10.0625 -3 12 C-2.8125 15.6875 -2.8125 15.6875 -3 19 C-2.34 19 -1.68 19 -1 19 C-0.81824219 20.25103516 -0.81824219 20.25103516 -0.6328125 21.52734375 C0.15313014 26.80525089 0.94710997 32.00978118 2.25 37.1875 C2.4975 38.445625 2.745 39.70375 3 41 C2.34 41.66 1.68 42.32 1 43 C0.01407444 38.83490324 -0.96251506 34.66767017 -1.9375 30.5 C-2.35418945 28.74042969 -2.35418945 28.74042969 -2.77929688 26.9453125 C-4.17318354 20.96671427 -5.40240667 15.11209378 -6 9 Z " fill="#DA673D" transform="translate(104,41)"/>
<path d="M0 0 C3.08203125 -0.328125 3.08203125 -0.328125 6.8125 -0.25 C8.64748047 -0.22679688 8.64748047 -0.22679688 10.51953125 -0.203125 C13.46356648 -0.03130701 16.13731527 0.32386113 19 1 C19 2.32 19 3.64 19 5 C13.72 5 8.44 5 3 5 C2.34 6.98 1.68 8.96 1 11 C-0.32 10.34 -1.64 9.68 -3 9 C-2.5020163 5.26512223 -2.12508244 3.18762365 0 0 Z " fill="#EF5D28" transform="translate(130,73)"/>
<path d="M0 0 C0.66 0 1.32 0 2 0 C2.04898438 0.69867188 2.09796875 1.39734375 2.1484375 2.1171875 C2.22320312 3.02726562 2.29796875 3.93734375 2.375 4.875 C2.44460937 5.77992187 2.51421875 6.68484375 2.5859375 7.6171875 C2.79568132 10.17941903 2.79568132 10.17941903 5 12 C6.06102674 16.69619661 6.35209795 21.34277373 5 26 C4.34 26 3.68 26 3 26 C2.35163958 24.25093469 1.70641216 22.50070781 1.0625 20.75 C0.70285156 19.77546875 0.34320313 18.8009375 -0.02734375 17.796875 C-1.39253037 13.87127814 -2.15267651 10.53988996 -2.1875 6.375 C-2.20167969 5.59898438 -2.21585937 4.82296875 -2.23046875 4.0234375 C-2 2 -2 2 0 0 Z " fill="#F05D24" transform="translate(105,58)"/>
<path d="M0 0 C1.65 0 3.3 0 5 0 C5 1.98 5 3.96 5 6 C4.34 6 3.68 6 3 6 C3.020625 7.175625 3.04125 8.35125 3.0625 9.5625 C3.0416521 13.47495525 2.91798741 17.17505244 2 21 C-0.0625 22.4375 -0.0625 22.4375 -2 23 C-2.33 22.67 -2.66 22.34 -3 22 C-2.96120161 19.60643749 -2.85365169 17.26030101 -2.6875 14.875 C-2.60886719 13.57304688 -2.53023438 12.27109375 -2.44921875 10.9296875 C-2.00240172 7.02100983 -1.18729398 3.73149538 0 0 Z " fill="#EF5C26" transform="translate(81,52)"/>
<path d="M0 0 C1.32 0 2.64 0 4 0 C3 3 3 3 1 6 C0.34687127 7.87952767 -0.24975639 9.77896103 -0.8125 11.6875 C-1.15410156 12.82960938 -1.49570313 13.97171875 -1.84765625 15.1484375 C-2.03086426 15.76428711 -2.21407227 16.38013672 -2.40283203 17.01464844 C-3.48827477 20.62332398 -4.62176265 24.21702275 -5.75 27.8125 C-6.1823514 29.19399172 -6.61464816 30.57550055 -7.046875 31.95703125 C-7.36140625 32.96121094 -7.6759375 33.96539062 -8 35 C-9.30660357 30.70272603 -8.6596762 27.39784135 -8 23 C-7.34 23 -6.68 23 -6 23 C-6 21.02 -6 19.04 -6 17 C-6.99 17.33 -7.98 17.66 -9 18 C-9 15.03 -9 12.06 -9 9 C-8.67 10.32 -8.34 11.64 -8 13 C-6.35 13 -4.7 13 -3 13 C-3.0928125 11.453125 -3.0928125 11.453125 -3.1875 9.875 C-2.98864405 5.76531027 -2.05532197 3.51117504 0 0 Z " fill="#E85E28" transform="translate(92,35)"/>
<path d="M0 0 C5.94 0.99 5.94 0.99 12 2 C10.68 2.33 9.36 2.66 8 3 C8.8345262 5.50357861 9.79371992 7.66785852 11 10 C8.89455987 9.71767279 6.79066411 9.4238102 4.6875 9.125 C3.51574219 8.96257812 2.34398437 8.80015625 1.13671875 8.6328125 C-2 8 -2 8 -5 6 C-4.67 5.34 -4.34 4.68 -4 4 C-2.02 4 -0.04 4 2 4 C2 3.34 2 2.68 2 2 C1.34 2 0.68 2 0 2 C0 1.34 0 0.68 0 0 Z " fill="#2C3A4F" transform="translate(158,66)"/>
<path d="M0 0 C1.32 0.66 2.64 1.32 4 2 C4 2.33 4 2.66 4 3 C2.02 3.33 0.04 3.66 -2 4 C-2 5.32 -2 6.64 -2 8 C-1.01 8.33 -0.02 8.66 1 9 C0.67 10.32 0.34 11.64 0 13 C-0.66 12.34 -1.32 11.68 -2 11 C-5.67230705 14.07999946 -6.56802365 16.2482602 -7 21 C-7.66 21 -8.32 21 -9 21 C-9.60206696 14.47091828 -9.22339537 10.05062168 -5.37890625 4.62890625 C-3.77547496 2.73476787 -2.13841176 1.26720697 0 0 Z " fill="#2A374B" transform="translate(37,91)"/>
<path d="M0 0 C5.94 0 11.88 0 18 0 C19.99215329 7.07214418 20.37191845 10.8246064 16.9453125 17.3828125 C16.63335937 17.91648437 16.32140625 18.45015625 16 19 C14.02 18.67 12.04 18.34 10 18 C10.99 17.67 11.98 17.34 13 17 C13.88515994 14.27347054 14.57555711 11.72288588 15.1875 8.9375 C16.0846875 5.0084375 16.0846875 5.0084375 17 1 C11.39 1 5.78 1 0 1 C0 0.67 0 0.34 0 0 Z " fill="#D1D4D8" transform="translate(51,71)"/>
<path d="M0 0 C4.29 0 8.58 0 13 0 C14 4 14 4 13 6 C9.04 6 5.08 6 1 6 C0.67 4.02 0.34 2.04 0 0 Z " fill="#1A2A41" transform="translate(111,44)"/>
<path d="M0 0 C0.33 0 0.66 0 1 0 C0.35907519 5.44426018 -0.86713592 10.50324419 -2.4375 15.75 C-2.65470703 16.50410156 -2.87191406 17.25820312 -3.09570312 18.03515625 C-4.09177444 21.40325326 -5.03870061 24.05805092 -7 27 C-10.375 27.5625 -10.375 27.5625 -14 27 C-16.70448323 23.87944243 -18 22.16725696 -18 18 C-16.02 18 -14.04 18 -12 18 C-12.99 18.66 -13.98 19.32 -15 20 C-14.67 21.65 -14.34 23.3 -14 25 C-11.69 25 -9.38 25 -7 25 C-6.74605469 23.94941406 -6.49210937 22.89882812 -6.23046875 21.81640625 C-4.4264196 14.43140971 -2.55985487 7.16759364 0 0 Z " fill="#D2643D" transform="translate(81,74)"/>
<path d="M0 0 C5.625 -0.25 5.625 -0.25 9 2 C9.875 3.9375 9.875 3.9375 10 6 C9.0625 7.75 9.0625 7.75 7 9 C2.03838948 9.40012988 -1.47806839 9.2609658 -6 7 C-6 6.67 -6 6.34 -6 6 C-4.1128125 5.87625 -4.1128125 5.87625 -2.1875 5.75 C1.33811212 5.33442857 1.33811212 5.33442857 4 2.9375 C4.33 2.298125 4.66 1.65875 5 1 C3.35 1 1.7 1 0 1 C0 0.67 0 0.34 0 0 Z " fill="#2D3A52" transform="translate(43,116)"/>
<path d="M0 0 C2.125 0.9375 2.125 0.9375 4 2 C4.99 1.34 5.98 0.68 7 0 C9.6875 0.375 9.6875 0.375 12 1 C12 1.66 12 2.32 12 3 C12.99 3.33 13.98 3.66 15 4 C13.1746875 4.0928125 13.1746875 4.0928125 11.3125 4.1875 C6.81396752 4.72095429 4.93854691 6.54288599 2 10 C1.01 10.495 1.01 10.495 0 11 C0.04125 10.0925 0.0825 9.185 0.125 8.25 C0.00468444 5.1217954 -0.3914708 3.61385994 -2 1 C-1.34 0.67 -0.68 0.34 0 0 Z " fill="#16283F" transform="translate(141,93)"/>
<path d="M0 0 C0.66 0.33 1.32 0.66 2 1 C2.8515625 3.58203125 2.8515625 3.58203125 3.625 6.8125 C3.88539062 7.87082031 4.14578125 8.92914063 4.4140625 10.01953125 C5 13 5 13 5 17 C4.34 17 3.68 17 3 17 C2.67 15.02 2.34 13.04 2 11 C-0.49552484 11.78130071 -0.49552484 11.78130071 -3 13 C-3.33 13.99 -3.66 14.98 -4 16 C-3.39891424 10.34979382 -1.92471317 5.33835539 0 0 Z " fill="#FCE6DA" transform="translate(93,37)"/>
<path d="M0 0 C0 0.99 0 1.98 0 3 C-0.99 3.66 -1.98 4.32 -3 5 C-4.423125 6.0828125 -4.423125 6.0828125 -5.875 7.1875 C-9 9 -9 9 -11.875 8.75 C-12.57625 8.5025 -13.2775 8.255 -14 8 C-12.71034824 6.62437146 -11.37310707 5.29233607 -10 4 C-9.34 4 -8.68 4 -8 4 C-7.814375 3.0409375 -7.814375 3.0409375 -7.625 2.0625 C-7.41875 1.381875 -7.2125 0.70125 -7 0 C-4.3333581 -1.33332095 -2.83319697 -0.67102033 0 0 Z " fill="#1A2A46" transform="translate(74,46)"/>
<path d="M0 0 C1.5625 1.1875 1.5625 1.1875 3 3 C2.75 5.25 2.75 5.25 2 8 C1.65596692 10.33177975 1.32050798 12.66487041 1 15 C0.01 15.33 -0.98 15.66 -2 16 C-2.66 15.67 -3.32 15.34 -4 15 C-3.67 12.36 -3.34 9.72 -3 7 C-2.34 7 -1.68 7 -1 7 C-0.67 4.69 -0.34 2.38 0 0 Z " fill="#F25B25" transform="translate(88,33)"/>
<path d="M0 0 C0.556875 0.226875 1.11375 0.45375 1.6875 0.6875 C2.0175 2.3375 2.3475 3.9875 2.6875 5.6875 C0.375 7.75 0.375 7.75 -2.3125 9.6875 C-3.3025 9.3575 -4.2925 9.0275 -5.3125 8.6875 C-5.3125 7.3675 -5.3125 6.0475 -5.3125 4.6875 C-5.9725 4.0275 -6.6325 3.3675 -7.3125 2.6875 C-2.88173077 -0.38942308 -2.88173077 -0.38942308 0 0 Z " fill="#18263B" transform="translate(56.3125,113.3125)"/>
<path d="M0 0 C1.40907283 2.81814566 0.50872691 4.17277204 -0.4375 7.125 C-0.72496094 8.03507812 -1.01242188 8.94515625 -1.30859375 9.8828125 C-1.53675781 10.58148438 -1.76492187 11.28015625 -2 12 C-3.98 12 -5.96 12 -8 12 C-7.34 13.98 -6.68 15.96 -6 18 C-9.875 16.25 -9.875 16.25 -11 14 C-11.66 14.66 -12.32 15.32 -13 16 C-13.66 15.01 -14.32 14.02 -15 13 C-14.34 13 -13.68 13 -13 13 C-12.67 12.01 -12.34 11.02 -12 10 C-9.36 10.33 -6.72 10.66 -4 11 C-3.566875 9.1128125 -3.566875 9.1128125 -3.125 7.1875 C-2.42696461 4.1460601 -1.79553415 2.69330122 0 0 Z " fill="#F7F0E8" transform="translate(71,80)"/>
<path d="M0 0 C0.99 0 1.98 0 3 0 C3 5.61 3 11.22 3 17 C1.68 17 0.36 17 -1 17 C-0.67 11.39 -0.34 5.78 0 0 Z M-4 17 C-3.01 17 -2.02 17 -1 17 C-1 18.32 -1 19.64 -1 21 C-1.66 21 -2.32 21 -3 21 C-3.33 21.99 -3.66 22.98 -4 24 C-4 21.69 -4 19.38 -4 17 Z " fill="#182639" transform="translate(180,86)"/>
<path d="M0 0 C2.5215021 -0.08172936 5.04029917 -0.14083373 7.5625 -0.1875 C8.26697266 -0.21263672 8.97144531 -0.23777344 9.69726562 -0.26367188 C14.88003315 -0.33532304 18.36264182 0.67827402 23 3 C23 4.98 23 6.96 23 9 C22.01 9 21.02 9 20 9 C19.67 7.35 19.34 5.7 19 4 C16.40742331 3.13580777 14.65962293 2.82419068 11.98828125 2.68359375 C10.85229492 2.62075195 10.85229492 2.62075195 9.69335938 2.55664062 C8.51483398 2.49766602 8.51483398 2.49766602 7.3125 2.4375 C6.51521484 2.39431641 5.71792969 2.35113281 4.89648438 2.30664062 C2.93118553 2.20072632 0.96561504 2.09987449 -1 2 C-0.67 1.34 -0.34 0.68 0 0 Z " fill="#FBE6D9" transform="translate(130,69)"/>
<path d="M0 0 C0.4125 0.474375 0.825 0.94875 1.25 1.4375 C3.182185 3.16266518 4.48192275 3.56584875 7 4 C7.33 3.34 7.66 2.68 8 2 C8.99 3.32 9.98 4.64 11 6 C9.02 7.32 7.04 8.64 5 10 C1.535 8.02 1.535 8.02 -2 6 C-1.34 5.67 -0.68 5.34 0 5 C0 4.01 0 3.02 0 2 C-0.66 1.67 -1.32 1.34 -2 1 C-1.34 0.67 -0.68 0.34 0 0 Z " fill="#223147" transform="translate(172,71)"/>
<path d="M0 0 C2.64 0.33 5.28 0.66 8 1 C7.25 2.9375 7.25 2.9375 6 5 C2.79497337 6.37358284 -0.55959638 6.07819099 -4 6 C-4 4.35 -4 2.7 -4 1 C-2.68 1.33 -1.36 1.66 0 2 C0 1.34 0 0.68 0 0 Z " fill="#162842" transform="translate(40,116)"/>
<path d="M0 0 C5.94 0 11.88 0 18 0 C17 7 17 7 15 9 C15 6.69 15 4.38 15 2 C14.08476563 2.02320312 13.16953125 2.04640625 12.2265625 2.0703125 C10.44378906 2.09738281 10.44378906 2.09738281 8.625 2.125 C6.84996094 2.15980469 6.84996094 2.15980469 5.0390625 2.1953125 C2 2 2 2 0 0 Z " fill="#192436" transform="translate(50,72)"/>
<path d="M0 0 C1.32 0 2.64 0 4 0 C3 3 3 3 1 6 C0.28860005 8.13142095 -0.37300121 10.27974245 -1 12.4375 C-2.10827183 16.24285525 -3.21805068 19.43610135 -5 23 C-5 19.7 -5 16.4 -5 13 C-4.34 13 -3.68 13 -3 13 C-3.061875 11.96875 -3.12375 10.9375 -3.1875 9.875 C-2.98864405 5.76531027 -2.05532197 3.51117504 0 0 Z " fill="#DA6A3E" transform="translate(92,35)"/>
<path d="M0 0 C2.59009204 3.38704344 1.93553535 7.01040664 1.625 11.125 C0.29166667 8.45833333 -1.04166667 5.79166667 -2.375 3.125 C-3.695 3.125 -5.015 3.125 -6.375 3.125 C-7.035 5.105 -7.695 7.085 -8.375 9.125 C-8.705 9.125 -9.035 9.125 -9.375 9.125 C-9.045 6.155 -8.715 3.185 -8.375 0.125 C-5.19719086 -0.66945229 -3.11530219 -1.14774291 0 0 Z " fill="#FDEBDE" transform="translate(98.375,10.875)"/>
<path d="M0 0 C1.4606285 2.64738916 2 3.89448334 2 7 C5.465 6.505 5.465 6.505 9 6 C9.66 4.02 10.32 2.04 11 0 C12.13869156 2.7949702 12.06846818 3.82681578 10.9375 6.6875 C9 9 9 9 6 9.9375 C3 10 3 10 0 8 C-0.40843923 5.28796348 -0.13336867 2.7562858 0 0 Z " fill="#FCE2D4" transform="translate(111,108)"/>
<path d="M0 0 C2.46751239 3.70126859 2.30721156 5.62223532 2 10 C1 12.4375 1 12.4375 0 14 C-0.66 14 -1.32 14 -2 14 C-2.1799928 8.78020872 -1.97094808 4.92737019 0 0 Z " fill="#F25B26" transform="translate(103,46)"/>
<path d="M0 0 C0.33 0 0.66 0 1 0 C0.67 4.62 0.34 9.24 0 14 C-0.66 14 -1.32 14 -2 14 C-2.66 17.3 -3.32 20.6 -4 24 C-4.66 24 -5.32 24 -6 24 C-4.56933303 15.8301386 -2.35862583 7.94605012 0 0 Z " fill="#D76F46" transform="translate(87,26)"/>
<path d="M0 0 C2.97 0.495 2.97 0.495 6 1 C5.67 1.66 5.34 2.32 5 3 C6.65 2.67 8.3 2.34 10 2 C10.33 3.32 10.66 4.64 11 6 C9.56208484 5.85831863 8.1246763 5.71148957 6.6875 5.5625 C5.88699219 5.48128906 5.08648437 5.40007812 4.26171875 5.31640625 C2 5 2 5 -1 4 C-0.67 2.68 -0.34 1.36 0 0 Z " fill="#253248" transform="translate(53,82)"/>
<path d="M0 0 C-0.33 2.64 -0.66 5.28 -1 8 C-2.65 8.33 -4.3 8.66 -6 9 C-6.33 8.34 -6.66 7.68 -7 7 C-6.01 6.34 -5.02 5.68 -4 5 C-4 4.67 -4 4.34 -4 4 C-6.97 3.505 -6.97 3.505 -10 3 C-4 0 -4 0 0 0 Z " fill="#313C4B" transform="translate(77,42)"/>
<path d="M0 0 C0.99 0.33 1.98 0.66 3 1 C3 1.66 3 2.32 3 3 C4.32 2.34 5.64 1.68 7 1 C5.4169423 5.2742558 2.49431596 7.26531794 -1 10 C-1.02689216 8.52093108 -1.04634621 7.04172517 -1.0625 5.5625 C-1.07410156 4.73878906 -1.08570313 3.91507813 -1.09765625 3.06640625 C-1 1 -1 1 0 0 Z " fill="#16243D" transform="translate(50,58)"/>
<path d="M0 0 C1.83553796 2.75330694 2.40778129 4.11657204 3.0703125 7.23046875 C3.24433594 8.03291016 3.41835937 8.83535156 3.59765625 9.66210938 C3.77167969 10.49548828 3.94570312 11.32886719 4.125 12.1875 C4.30675781 13.03248047 4.48851563 13.87746094 4.67578125 14.74804688 C5.12292753 16.8308072 5.56222376 18.91525006 6 21 C5.34 21 4.68 21 4 21 C-0.59225513 7.55125285 -0.59225513 7.55125285 0 0 Z " fill="#D66C4A" transform="translate(108,59)"/>
<path d="M0 0 C2.05710856 3.08566284 2.78346093 5.36985312 3.6875 8.9375 C3.95949219 9.97777344 4.23148437 11.01804687 4.51171875 12.08984375 C4.97828785 14.8705956 4.93894816 16.38480882 4 19 C0.90133798 12.37384327 -0.47266289 7.32627475 0 0 Z " fill="#DC7551" transform="translate(99,22)"/>
<path d="M0 0 C1.29859561 3.89578683 1.48226416 7.94232915 1 12 C-0.375 14.5 -0.375 14.5 -2 16 C-2.66 16 -3.32 16 -4 16 C-2.98408579 10.53135543 -1.92908943 5.23609987 0 0 Z " fill="#DD6845" transform="translate(73,76)"/>
<path d="M0 0 C1.0625 1.8125 1.0625 1.8125 2 4 C1.67 4.99 1.34 5.98 1 7 C-0.32 7 -1.64 7 -3 7 C-3.66 7.99 -4.32 8.98 -5 10 C-5.93065133 7.39417629 -6.14917407 6.35801776 -5.0625 3.75 C-4.711875 3.1725 -4.36125 2.595 -4 2 C-3.01 2.33 -2.02 2.66 -1 3 C-0.67 2.01 -0.34 1.02 0 0 Z " fill="#17263C" transform="translate(140,105)"/>
<path d="M0 0 C1.9955516 3.99110319 2.19546065 5.69986566 2 10 C0.68 10 -0.64 10 -2 10 C-1.34 6.7 -0.68 3.4 0 0 Z " fill="#E26C46" transform="translate(76,64)"/>
<path d="M0 0 C1.32 0.33 2.64 0.66 4 1 C3.01 1.33 2.02 1.66 1 2 C1.0825 2.70125 1.165 3.4025 1.25 4.125 C0.9191745 7.92949327 -0.75313314 9.98077266 -3 13 C-3.93045933 10.44855176 -4.08564091 9.25993522 -3.22265625 6.640625 C-2.83980469 5.85171875 -2.45695312 5.0628125 -2.0625 4.25 C-1.68222656 3.45078125 -1.30195312 2.6515625 -0.91015625 1.828125 C-0.60980469 1.22484375 -0.30945313 0.6215625 0 0 Z " fill="#D26A42" transform="translate(92,13)"/>
<path d="M0 0 C1.98 0 3.96 0 6 0 C5.01 0.66 4.02 1.32 3 2 C3.54708727 4.53744315 3.54708727 4.53744315 5 7 C8.05272465 7.89830839 8.05272465 7.89830839 11 8 C11 8.33 11 8.66 11 9 C7.75 9.375 7.75 9.375 4 9 C1.29551677 5.87944243 0 4.16725696 0 0 Z " fill="#CF7151" transform="translate(63,92)"/>
<path d="M0 0 C1.40907283 2.81814566 0.50872691 4.17277204 -0.4375 7.125 C-0.72496094 8.03507812 -1.01242188 8.94515625 -1.30859375 9.8828125 C-1.65083984 10.93082031 -1.65083984 10.93082031 -2 12 C-3.65 12 -5.3 12 -7 12 C-6.01 11.67 -5.02 11.34 -4 11 C-3.26922707 9.22467415 -3.26922707 9.22467415 -2.9375 7.125 C-2.3349444 4.01466536 -1.84080823 2.76121234 0 0 Z " fill="#FEEBDA" transform="translate(71,80)"/>
<path d="M0 0 C0.99 0.33 1.98 0.66 3 1 C1.35 4.63 -0.3 8.26 -2 12 C-2.33 12 -2.66 12 -3 12 C-3.125 5.25 -3.125 5.25 -2 3 C-1.34 3 -0.68 3 0 3 C0 2.01 0 1.02 0 0 Z " fill="#FEEBDC" transform="translate(126,71)"/>
<path d="M0 0 C0.66 0.66 1.32 1.32 2 2 C4.10820797 1.6814823 4.10820797 1.6814823 6 1 C5.67 1.99 5.34 2.98 5 4 C4.34 4 3.68 4 3 4 C3 4.99 3 5.98 3 7 C2.01 6.67 1.02 6.34 0 6 C0 5.34 0 4.68 0 4 C-0.66 3.34 -1.32 2.68 -2 2 C-1.34 1.34 -0.68 0.68 0 0 Z " fill="#1C2C46" transform="translate(51,114)"/>
<path d="M0 0 C0.33 0.66 0.66 1.32 1 2 C0.67 2.66 0.34 3.32 0 4 C0.99 4.33 1.98 4.66 3 5 C3 6.32 3 7.64 3 9 C1.0625 8.3125 1.0625 8.3125 -1 7 C-1.875 4.5 -1.875 4.5 -2 2 C-1.34 1.34 -0.68 0.68 0 0 Z " fill="#283347" transform="translate(14,99)"/>
<path d="M0 0 C1.72357119 2.58535679 2.44735018 4.03811614 3.1875 6.9375 C3.36667969 7.60652344 3.54585938 8.27554688 3.73046875 8.96484375 C4.03268678 11.24680888 3.68756692 12.82026659 3 15 C3 14.34 3 13.68 3 13 C2.34 13 1.68 13 1 13 C0.67 8.71 0.34 4.42 0 0 Z " fill="#F9D4BC" transform="translate(98,55)"/>
<path d="M0 0 C1.4540625 0.0309375 1.4540625 0.0309375 2.9375 0.0625 C2.2775 1.3825 1.6175 2.7025 0.9375 4.0625 C0.9375 3.4025 0.9375 2.7425 0.9375 2.0625 C0.15375 2.5575 -0.63 3.0525 -1.4375 3.5625 C-4.0625 5.0625 -4.0625 5.0625 -6.0625 5.0625 C-3.64893617 0.07446809 -3.64893617 0.07446809 0 0 Z " fill="#1B263C" transform="translate(21.0625,70.9375)"/>
<path d="M0 0 C0.99 0 1.98 0 3 0 C2.01 3.96 1.02 7.92 0 12 C-1.15866723 7.36533108 -0.70010994 4.66739961 0 0 Z " fill="#D7643D" transform="translate(84,58)"/>
<path d="M0 0 C0.66 0.33 1.32 0.66 2 1 C4.38056989 8.64288227 4.38056989 8.64288227 3 13 C2.71125 12.030625 2.4225 11.06125 2.125 10.0625 C1.35785318 6.89335797 1.35785318 6.89335797 -1 6 C-0.67 4.02 -0.34 2.04 0 0 Z " fill="#FCD3BE" transform="translate(93,37)"/>
<path d="M0 0 C0.4125 0.61875 0.825 1.2375 1.25 1.875 C3.05573879 4.06768281 4.4090534 4.92788417 7 6 C4.39417629 6.93065133 3.35801776 7.14917407 0.75 6.0625 C0.1725 5.711875 -0.405 5.36125 -1 5 C-0.67 3.35 -0.34 1.7 0 0 Z " fill="#283449" transform="translate(142,118)"/>
<path d="M0 0 C1.51400391 0.01740234 1.51400391 0.01740234 3.05859375 0.03515625 C4.07050781 0.04417969 5.08242188 0.05320312 6.125 0.0625 C7.29869141 0.07990234 7.29869141 0.07990234 8.49609375 0.09765625 C3.27870245 2.74983016 3.27870245 2.74983016 0.49609375 3.09765625 C-1.75390625 2.16015625 -1.75390625 2.16015625 -3.50390625 1.09765625 C-2.50390625 0.09765625 -2.50390625 0.09765625 0 0 Z " fill="#142338" transform="translate(41.50390625,90.90234375)"/>
<path d="M0 0 C0 2 0 2 -1.125 3.625 C-3.75887944 5.55651159 -5.81916956 5.21205536 -9 5 C-8.67 4.01 -8.34 3.02 -8 2 C-6.0625 1.375 -6.0625 1.375 -4 1 C-2 0 -2 0 0 0 Z " fill="#23314D" transform="translate(22,73)"/>
<path d="M0 0 C0.99 0.33 1.98 0.66 3 1 C2.67 3.64 2.34 6.28 2 9 C1.34 9 0.68 9 0 9 C0 6.03 0 3.06 0 0 Z " fill="#2C3948" transform="translate(133,102)"/>
<path d="M0 0 C1.11375 0.3403125 1.11375 0.3403125 2.25 0.6875 C0.93 2.3375 -0.39 3.9875 -1.75 5.6875 C-2.08 5.0275 -2.41 4.3675 -2.75 3.6875 C-4.77463255 3.03536708 -4.77463255 3.03536708 -6.75 2.6875 C-4.29511132 0.41445492 -3.41240272 -0.38777304 0 0 Z " fill="#2C3A4E" transform="translate(145.75,90.3125)"/>
<path d="M0 0 C2.31 0.33 4.62 0.66 7 1 C6.67 1.66 6.34 2.32 6 3 C4.68 3 3.36 3 2 3 C1.34 4.98 0.68 6.96 0 9 C-0.33 9 -0.66 9 -1 9 C-0.67 6.03 -0.34 3.06 0 0 Z " fill="#F8D6C4" transform="translate(90,11)"/>
<path d="M0 0 C0.99 0.33 1.98 0.66 3 1 C3 2.32 3 3.64 3 5 C3.66 5 4.32 5 5 5 C5.33 6.32 5.66 7.64 6 9 C0.42857143 3.85714286 0.42857143 3.85714286 0 0 Z " fill="#212B3D" transform="translate(29,112)"/>
<path d="M0 0 C0.99 0 1.98 0 3 0 C2.67 4.29 2.34 8.58 2 13 C1.67 13 1.34 13 1 13 C0.67 8.71 0.34 4.42 0 0 Z " fill="#112239" transform="translate(180,86)"/>
</svg>
